<svg width="33" height="33" viewBox="0 0 33 33" fill="none" xmlns="http://www.w3.org/2000/svg">
<rect width="33" height="33" rx="3" fill="#F83737"/>
<g clip-path="url(#clip0_1_201)">
<path d="M15.2855 12.4439V9.57128C15.2854 9.25567 15.0295 8.9999 14.7139 9C14.552 9.00003 14.3978 9.06874 14.2895 9.18897L9.14659 14.9033C8.95852 15.1128 8.95099 15.428 9.12888 15.6462L14.2718 21.9319C14.4716 22.1762 14.8316 22.2122 15.0759 22.0124C15.2082 21.9042 15.2851 21.7423 15.2855 21.5714V18.7239C19.7998 18.8708 22.617 20.8005 23.8867 24.6097C23.9646 24.8427 24.1828 24.9999 24.4285 25C24.4593 25.0001 24.4901 24.9976 24.5205 24.9925C24.7969 24.9474 24.9999 24.7086 24.9999 24.4285C24.9999 17.6993 20.949 12.7559 15.2855 12.4439Z" fill="white"/>
</g>
<defs>
<clipPath id="clip0_1_201">
<rect width="16" height="16" fill="white" transform="translate(9 9)"/>
</clipPath>
</defs>
</svg>
